<?xml version="1.0" encoding="UTF-8"?>
<svg id="Camada_2" data-name="Camada 2" xmlns="http://www.w3.org/2000/svg" viewBox="0 0 731.37 217.5">
  <defs>
    <style>
      .cls-1 {
        fill: #fff;
        stroke-width: 0px;
      }
    </style>
  </defs>
  <g id="type">
    <g>
      <polygon class="cls-1" points="224.79 217.49 259.41 217.49 129.7 2.32 0 217.49 34.62 217.49 129.7 60.31 224.79 217.49"/>
      <polygon class="cls-1" points="565.99 0 531.9 0 597.62 108.75 531.9 217.49 565.99 217.49 631.7 108.75 565.99 0"/>
      <polygon class="cls-1" points="456.16 217.15 473.92 187.77 316.67 187.77 334.58 217.5 455.82 217.5 456.16 217.15"/>
      <polygon class="cls-1" points="521.67 108.75 512.69 93.89 260.07 93.89 277.99 123.61 512.69 123.61 521.67 108.75"/>
      <polygon class="cls-1" points="456.37 .68 455.69 0 203.55 0 222.04 29.72 473.92 29.72 456.37 .68"/>
      <g>
        <polygon class="cls-1" points="686.21 74.73 731.37 0 697.28 0 669.17 46.53 686.21 74.73"/>
        <polygon class="cls-1" points="669.17 170.97 697.28 217.49 731.37 217.49 686.21 142.77 669.17 170.97"/>
      </g>
    </g>
  </g>
</svg>